<?xml version="1.0" encoding="UTF-8"?>
<!-- Generated by Pixelmator Pro 2.4.3 -->
<svg width="79" height="79" viewBox="0 0 79 79" xmlns="http://www.w3.org/2000/svg" xmlns:xlink="http://www.w3.org/1999/xlink">
    <g id="Group-copy">
        <path id="Shape-copy-3" fill="#84c326" fill-rule="evenodd" stroke="none" d="M 56.104759 74.886627 C 55.665649 74.870872 53.907776 73.952728 52.198376 72.846298 C 50.488976 71.739868 47.963768 70.132271 46.586815 69.273857 C 45.209858 68.415428 42.696327 66.440033 41.001221 64.884071 C 39.306114 63.328106 36.641781 61.156235 35.080475 60.057701 C 33.519169 58.959167 31.079231 56.942619 29.658354 55.576481 C 28.237499 54.210342 26.621161 52.810356 26.066507 52.465401 C 25.511852 52.120438 24.819801 51.929623 24.528591 52.041367 C 24.237381 52.153107 23.813627 52.651669 23.586914 53.149277 C 23.360178 53.646885 23.077848 55.035286 22.95949 56.234615 C 22.841141 57.433933 22.525978 58.953659 22.259132 59.611771 C 21.992287 60.269882 21.773968 61.327625 21.773968 61.962326 C 21.773968 62.597015 21.527914 63.815025 21.227184 64.668999 C 20.926456 65.52298 20.457005 66.445923 20.183943 66.719986 C 19.75774 67.147781 19.561035 67.135437 18.793777 66.632721 C 18.294188 66.305374 17.714193 65.426712 17.478558 64.640244 C 17.218653 63.772762 17.145191 62.377724 17.286951 61.001698 C 17.41341 59.774292 17.938362 56.759468 18.453524 54.302109 C 19.071981 51.35202 19.308895 49.400864 19.150902 48.558693 C 19.019299 47.857189 18.267797 46.319092 17.480896 45.140705 C 16.407755 43.533657 16.078136 42.714367 16.16206 41.862591 C 16.249069 40.979454 16.628946 40.477859 17.870724 39.606441 C 18.748957 38.990147 19.618135 38.059776 19.802225 37.538948 C 19.986326 37.018147 20.128597 32.640102 20.118385 27.809975 C 20.108185 22.979847 19.981464 16.721607 19.836792 13.902763 C 19.653578 10.332878 19.698572 8.361008 19.985039 7.404861 C 20.211243 6.649872 20.948753 5.42067 21.623966 4.673279 C 22.299177 3.925896 23.766825 2.860619 24.885382 2.305962 C 26.00396 1.751305 27.189135 1.245125 27.519135 1.181084 C 27.849133 1.117043 28.487841 1.297859 28.938496 1.582878 C 29.389149 1.867912 30.31675 2.160858 30.999813 2.233864 C 31.682877 2.306892 33.599022 2.907921 35.257896 3.569496 C 36.916767 4.231071 38.832916 5.044212 39.51598 5.376488 C 40.199039 5.70874 41.705055 6.494888 42.862682 7.123489 C 44.020287 7.75206 45.856583 8.872993 46.943344 9.614449 C 48.030087 10.355881 49.896572 11.919632 51.091061 13.089432 C 52.524303 14.49305 53.664734 16.045475 54.444542 17.654404 C 55.255405 19.3274 55.623978 20.593533 55.619083 21.68924 C 55.615143 22.567459 55.264957 24.170242 54.8409 25.250938 C 54.237213 26.789394 53.589886 27.616917 51.858543 29.063499 C 50.429935 30.257145 47.508804 31.975662 43.605782 33.918667 C 40.283009 35.572796 35.728062 37.589584 33.483696 38.400387 C 31.239325 39.211185 29.203434 40.033897 28.959482 40.228622 C 28.715528 40.423347 28.519894 41.161919 28.524725 41.869869 C 28.530962 42.781635 28.909452 43.669689 29.822412 44.914631 C 30.53129 45.881279 32.914421 48.40448 35.118248 50.52174 C 37.322071 52.638988 41.34153 56.478764 44.050415 59.05455 C 46.759274 61.630333 50.452049 65.015236 52.256569 66.57653 C 54.061092 68.137825 55.844173 69.894287 56.219002 70.479767 C 56.645271 71.145615 56.900982 72.175529 56.901829 73.229782 C 56.903019 74.75 56.824856 74.912468 56.104759 74.886627 Z M 27.982674 36.150993 C 28.56871 36.071854 30.964336 35.246456 33.306274 34.316757 C 35.648212 33.387077 38.442577 32.022793 39.51598 31.285042 C 40.589378 30.547295 42.186161 29.5858 43.064381 29.148399 C 43.9426 28.710999 45.120499 27.93158 45.681934 27.416344 C 46.243366 26.901127 47.001236 26.000557 47.366104 25.415062 C 47.795727 24.725632 48.029957 23.688766 48.030823 22.472427 C 48.032055 20.72744 47.91571 20.469845 46.389404 18.838108 C 45.485909 17.872196 43.734688 16.442764 42.497772 15.661591 C 41.260876 14.880417 39.405327 13.847733 38.374355 13.366783 C 37.343361 12.885803 35.94096 12.258774 35.257896 11.973389 C 34.574833 11.688004 33.113152 11.202484 32.009712 10.894424 C 30.906294 10.58638 28.990149 10.334961 27.751629 10.33567 C 26.139406 10.336624 25.174944 10.53508 24.356089 11.034355 C 23.727039 11.417885 23.119291 12.102577 23.005512 12.55587 C 22.891745 13.009193 22.84754 14.314957 22.907284 15.457596 C 22.983009 16.906002 23.191227 17.645115 23.594841 17.898357 C 24.014395 18.161606 24.52976 18.09267 25.466934 17.647949 C 26.178152 17.310459 27.058128 17.128922 27.422411 17.244534 C 27.786715 17.360165 28.280924 17.928333 28.520674 18.507156 C 28.856195 19.317154 28.864944 20.11132 28.558704 21.955044 C 28.339876 23.272572 27.992311 25.228764 27.786325 26.302162 C 27.58036 27.375561 27.181208 29.238064 26.899355 30.441063 C 26.6175 31.644062 26.38689 33.333992 26.38689 34.196468 C 26.38689 35.058922 26.506203 35.883888 26.652023 36.029709 C 26.797867 36.175529 27.39666 36.23011 27.982674 36.150993 Z"/>
        <path id="Shape-copy-2" fill="#84c326" fill-rule="evenodd" stroke="none" d="M 35.733021 69.915672 C 34.983795 69.898148 33.109818 69.656097 31.568609 69.377769 C 30.027424 69.099434 28.35079 68.673157 27.842787 68.430473 C 27.334784 68.187798 26.869446 67.641556 26.808695 67.216599 C 26.73716 66.716156 26.987177 66.260399 27.518375 65.92292 C 28.1633 65.513199 29.589396 65.412384 34.193375 65.451019 C 38.729996 65.48909 40.687378 65.354141 42.886959 64.851669 C 44.448265 64.49501 47.322464 63.713593 49.274082 63.115189 C 51.225704 62.516785 54.339436 61.268814 56.19347 60.341919 C 58.047501 59.41502 61.001549 57.738659 62.758011 56.616657 C 64.514473 55.494637 66.404716 54.501976 66.958572 54.410732 C 67.592148 54.306362 68.174721 54.453979 68.529579 54.808846 C 68.983353 55.262619 69.015755 55.543648 68.695389 56.246765 C 68.476387 56.72744 67.450073 57.744118 66.414703 58.506081 C 65.379333 59.26804 63.323669 60.630421 61.846592 61.533592 C 60.369492 62.436752 57.894466 63.825909 56.346565 64.620598 C 54.798645 65.415291 51.775703 66.609711 49.628925 67.274849 C 47.482143 67.939987 43.783829 68.813446 41.410465 69.215858 C 39.037106 69.618271 36.48225 69.933182 35.733021 69.915672 Z"/>
        <path id="Shape-copy" fill="#84c326" fill-rule="evenodd" stroke="none" d="M 33.509899 76.997437 C 31.446287 76.971649 28.108463 76.662338 26.092539 76.310074 C 24.076595 75.957809 22.040703 75.416344 21.568327 75.106827 C 21.038557 74.75972 20.709446 74.203911 20.709446 73.656372 C 20.709446 73.047691 20.975143 72.667648 21.554747 72.447281 C 22.08757 72.244705 23.300945 72.280754 24.837019 72.544769 C 26.177351 72.775154 29.908674 72.948456 33.128853 72.929901 C 37.657375 72.903778 39.90387 72.715088 43.045494 72.096954 C 45.279469 71.65741 48.773205 70.820206 50.80938 70.236511 C 52.845531 69.652817 55.753078 68.651596 57.270596 68.011604 C 58.788086 67.371597 61.441959 66.086281 63.168056 65.15535 C 64.894157 64.224411 67.662575 62.646397 69.320107 61.648647 C 70.977638 60.650909 72.654274 59.743881 73.045929 59.633038 C 73.437614 59.522217 74.037491 59.500923 74.379028 59.585716 C 74.779678 59.685211 75 60.080986 75 60.701195 C 75 61.244598 74.652931 61.980724 74.201607 62.394585 C 73.762497 62.797241 71.440895 64.351128 69.042503 65.847672 C 66.644104 67.344208 62.891663 69.439919 60.703754 70.504807 C 58.515846 71.569687 55.368462 72.899391 53.709587 73.459702 C 52.050713 74.02002 49.336178 74.815269 47.677303 75.226929 C 46.018429 75.638596 42.99633 76.215919 40.961544 76.509865 C 38.926758 76.803802 35.573513 77.023216 33.509899 76.997437 Z"/>
    </g>
</svg>
